<svg xmlns="http://www.w3.org/2000/svg" xmlns:xlink="http://www.w3.org/1999/xlink" width="500" zoomAndPan="magnify" viewBox="0 0 375 374.999991" height="500" preserveAspectRatio="xMidYMid meet" version="1.0"><defs><clipPath id="953759202a"><path d="M 89 111 L 286.40625 111 L 286.40625 271.453125 L 89 271.453125 Z M 89 111 " clip-rule="nonzero"/></clipPath><clipPath id="d32eed454d"><path d="M 110 103.453125 L 220 103.453125 L 220 130 L 110 130 Z M 110 103.453125 " clip-rule="nonzero"/></clipPath></defs><g clip-path="url(#953759202a)"><path fill="#0cc0df" d="M 90.117188 226.355469 C 90.214844 226.167969 90.320312 225.996094 90.429688 225.835938 C 92.773438 222.460938 98.195312 224.734375 101.183594 226.078125 C 106.585938 228.503906 111.714844 231.605469 117.089844 234.128906 C 128.160156 239.328125 139.894531 243.832031 152.132812 245.179688 C 158.375 245.871094 166.324219 246.78125 172.347656 245.019531 C 177.730469 243.445312 175.257812 239.726562 171.597656 237.820312 C 166.394531 235.121094 160.765625 232.777344 155.910156 229.5 C 151.984375 226.851562 140.816406 219.535156 145.816406 213.746094 C 147.84375 211.394531 151.765625 212.769531 154.132812 213.511719 C 162.152344 216.03125 169.421875 219.011719 177.925781 219.792969 C 186.816406 220.609375 195.949219 220.441406 204.425781 223.636719 C 208.546875 225.191406 212.523438 227.328125 216.699219 228.824219 C 258.464844 210.546875 271.605469 164.769531 275.726562 136.214844 C 277.742188 122.25 277.601562 112.421875 277.59375 111.929688 C 283.347656 125.628906 286.546875 140.664062 286.546875 156.453125 C 286.546875 189.511719 272.601562 219.3125 250.277344 240.300781 C 229.683594 259.660156 201.964844 271.523438 171.472656 271.523438 C 162.164062 271.523438 152.753906 270.804688 143.824219 268.179688 C 100.210938 255.367188 88.457031 229.550781 90.117188 226.355469 Z M 90.117188 226.355469 " fill-opacity="1" fill-rule="nonzero"/></g><path fill="#5ce1e6" d="M 93.238281 196.898438 L 89.96875 204.882812 L 224.554688 204.882812 C 233.296875 204.882812 240.40625 197.769531 240.40625 189.027344 L 240.40625 186.515625 C 240.40625 177.769531 233.296875 170.660156 224.554688 170.660156 L 90.117188 170.660156 L 93.625 178.753906 C 96.777344 186.023438 94.738281 193.246094 93.238281 196.898438 Z M 98.597656 199.09375 C 99.128906 197.789062 99.71875 196.105469 100.191406 194.15625 L 225.804688 194.15625 C 226.339844 194.15625 226.769531 193.722656 226.769531 193.191406 C 226.769531 192.65625 226.339844 192.226562 225.804688 192.226562 L 100.59375 192.226562 C 100.789062 191.121094 100.941406 189.953125 101.015625 188.734375 L 228.859375 188.734375 C 229.390625 188.734375 229.824219 188.304688 229.824219 187.769531 C 229.824219 187.234375 229.390625 186.804688 228.859375 186.804688 L 101.070312 186.804688 C 101.0625 185.488281 100.964844 184.128906 100.75 182.738281 L 225.800781 182.738281 C 226.335938 182.738281 226.765625 182.308594 226.765625 181.773438 C 226.765625 181.238281 226.335938 180.808594 225.800781 180.808594 L 100.378906 180.808594 C 100.042969 179.371094 99.570312 177.914062 98.933594 176.445312 L 224.554688 176.445312 C 230.113281 176.445312 234.617188 180.953125 234.617188 186.515625 L 234.617188 189.027344 C 234.617188 194.589844 230.109375 199.097656 224.554688 199.097656 L 98.597656 199.097656 Z M 98.597656 199.09375 " fill-opacity="1" fill-rule="nonzero"/><path fill="#5ce1e6" d="M 240.40625 151.140625 L 240.40625 148.625 C 240.40625 139.882812 233.296875 132.769531 224.554688 132.769531 L 90.117188 132.769531 L 93.621094 140.859375 C 96.777344 148.136719 94.738281 155.351562 93.238281 159.007812 L 89.96875 166.996094 L 224.554688 166.996094 C 233.296875 166.996094 240.40625 159.882812 240.40625 151.140625 Z M 234.617188 151.140625 C 234.617188 156.699219 230.109375 161.207031 224.554688 161.207031 L 98.597656 161.207031 C 99.128906 159.902344 99.71875 158.222656 100.191406 156.265625 L 225.804688 156.265625 C 226.339844 156.265625 226.769531 155.835938 226.769531 155.300781 C 226.769531 154.769531 226.339844 154.335938 225.804688 154.335938 L 100.59375 154.335938 C 100.789062 153.234375 100.941406 152.066406 101.015625 150.84375 L 228.859375 150.84375 C 229.390625 150.84375 229.824219 150.414062 229.824219 149.878906 C 229.824219 149.347656 229.390625 148.914062 228.859375 148.914062 L 101.070312 148.914062 C 101.0625 147.601562 100.964844 146.242188 100.75 144.851562 L 225.800781 144.851562 C 226.335938 144.851562 226.765625 144.417969 226.765625 143.886719 C 226.765625 143.351562 226.335938 142.917969 225.800781 142.917969 L 100.378906 142.917969 C 100.042969 141.484375 99.570312 140.023438 98.933594 138.558594 L 224.554688 138.558594 C 230.113281 138.558594 234.617188 143.066406 234.617188 148.625 Z M 234.617188 151.140625 " fill-opacity="1" fill-rule="nonzero"/><g clip-path="url(#d32eed454d)"><path fill="#5ce1e6" d="M 219.890625 117.179688 L 219.890625 115.367188 C 219.890625 108.796875 214.546875 103.453125 207.980469 103.453125 L 110.339844 103.453125 L 113.160156 109.960938 C 115.363281 115.042969 113.929688 120.105469 112.878906 122.671875 L 110.25 129.089844 L 207.976562 129.089844 C 214.546875 129.089844 219.890625 123.746094 219.890625 117.179688 Z M 214.75 115.363281 L 214.75 117.175781 C 214.75 120.914062 211.710938 123.953125 207.976562 123.953125 L 117.894531 123.953125 C 118.214844 123.109375 118.488281 122.238281 118.710938 121.355469 L 208.882812 121.355469 C 209.53125 121.355469 210.058594 120.828125 210.058594 120.179688 C 210.058594 119.527344 209.527344 119 208.882812 119 L 119.195312 119 C 119.277344 118.480469 119.339844 117.957031 119.382812 117.449219 L 211.082031 117.449219 C 211.734375 117.449219 212.261719 116.921875 212.261719 116.269531 C 212.261719 115.617188 211.734375 115.089844 211.082031 115.089844 L 119.445312 115.089844 C 119.425781 114.429688 119.378906 113.769531 119.292969 113.125 L 208.878906 113.125 C 209.527344 113.125 210.054688 112.597656 210.054688 111.945312 C 210.054688 111.296875 209.527344 110.765625 208.878906 110.765625 L 118.851562 110.765625 C 118.660156 110.027344 118.425781 109.296875 118.152344 108.585938 L 207.976562 108.585938 C 211.714844 108.59375 214.75 111.632812 214.75 115.363281 Z M 214.75 115.363281 " fill-opacity="1" fill-rule="nonzero"/></g></svg>